<?xml version="1.0" encoding="UTF-8" standalone="no"?>
<!DOCTYPE svg PUBLIC "-//W3C//DTD SVG 1.1//EN" "http://www.w3.org/Graphics/SVG/1.1/DTD/svg11.dtd">
<svg width="100%" height="100%" viewBox="0 0 188 81" version="1.1" xmlns="http://www.w3.org/2000/svg" xmlns:xlink="http://www.w3.org/1999/xlink" xml:space="preserve" xmlns:serif="http://www.serif.com/" style="fill-rule:evenodd;clip-rule:evenodd;stroke-linejoin:round;stroke-miterlimit:2;">
    <g transform="matrix(0.390338,0,0,0.390338,-76.1514,-110.388)">
        <g transform="matrix(0.513366,0,0,0.83697,105.396,-225.881)">
            <rect x="174.686" y="607.765" width="934.084" height="247.321" style="fill:none;"/>
        </g>
        <g transform="matrix(0.640339,0,0,0.640339,195.074,282.8)">
            <path d="M487.665,164.65C488.24,166.087 489.293,169.2 490.826,173.989C491.592,169.775 492.358,166.614 493.125,164.507L503.038,134.335C504.187,130.983 506.534,129.307 510.078,129.307L514.245,129.307C515.969,129.307 517.453,129.929 518.699,131.174C519.944,132.42 520.566,133.904 520.566,135.628C520.566,136.395 520.423,137.209 520.135,138.071L498.153,193.96C493.651,205.454 489.629,213.116 486.085,216.948C482.541,220.779 478.23,222.695 473.154,222.695C469.514,222.695 465.874,221.785 462.235,219.965C460.511,219.103 459.649,217.714 459.649,215.798C459.649,215.128 459.792,214.505 460.08,213.931L461.947,210.051C462.905,207.944 464.294,206.891 466.114,206.891C466.976,206.891 468.077,207.034 469.418,207.322C469.801,207.417 470.424,207.465 471.286,207.465C475.213,207.465 478.518,204.113 481.2,197.408L482.636,193.96L456.631,137.783C456.248,136.826 456.057,136.011 456.057,135.341C456.057,133.713 456.631,132.3 457.781,131.103C458.93,129.905 460.367,129.307 462.091,129.307L468.269,129.307C471.142,129.307 473.154,130.648 474.303,133.329L487.665,164.65ZM636.368,98.704L636.368,133.329C641.157,129.594 646.856,127.726 653.465,127.726C662.947,127.726 670.442,130.767 675.95,136.849C681.457,142.932 684.211,150.858 684.211,160.628C684.211,171.259 680.883,179.736 674.226,186.058C667.569,192.379 658.589,195.54 647.287,195.54C638.954,195.54 631.099,193.816 623.724,190.368C622.671,189.889 621.761,189.051 620.994,187.854C620.228,186.656 619.845,185.483 619.845,184.334L619.845,98.704C619.845,97.267 620.372,96.022 621.425,94.969C622.479,93.915 623.724,93.388 625.161,93.388L631.052,93.388C632.488,93.388 633.734,93.915 634.787,94.969C635.841,96.022 636.368,97.267 636.368,98.704ZM334.365,180.024L336.52,177.294C337.478,176.049 338.627,175.426 339.968,175.426C341.309,175.426 342.746,175.953 344.278,177.006C349.067,180.167 354.383,181.748 360.226,181.748C362.716,181.748 364.752,181.221 366.332,180.167C367.913,179.114 368.703,177.629 368.703,175.713C368.703,173.798 367.506,172.241 365.111,171.044C362.716,169.847 359.819,168.793 356.419,167.883C353.018,166.973 349.594,165.872 346.146,164.579C342.698,163.286 339.777,161.202 337.382,158.329C334.987,155.455 333.79,151.816 333.79,147.41C333.79,141.279 336.017,136.466 340.471,132.97C344.925,129.474 350.6,127.726 357.496,127.726C365.542,127.726 372.726,129.738 379.047,133.76C380.484,134.718 381.203,136.155 381.203,138.071C381.203,139.124 380.915,140.082 380.34,140.944L378.76,143.243C377.611,144.776 376.27,145.542 374.737,145.542C373.875,145.542 372.678,145.207 371.145,144.536C367.218,142.525 362.956,141.519 358.358,141.519C355.964,141.519 354.024,142.07 352.54,143.171C351.055,144.273 350.313,145.59 350.313,147.122C350.313,149.038 351.51,150.618 353.904,151.863C356.299,153.109 359.196,154.162 362.597,155.024C365.997,155.886 369.421,156.94 372.869,158.185C376.318,159.43 379.239,161.466 381.634,164.291C384.028,167.117 385.225,170.637 385.225,174.851C385.225,181.173 382.855,186.202 378.114,189.937C373.372,193.673 367.027,195.54 359.077,195.54C349.786,195.54 341.74,192.571 334.939,186.633C333.886,185.675 333.359,184.477 333.359,183.041C333.359,181.796 333.694,180.79 334.365,180.024ZM317.268,146.404C316.406,146.404 315.544,146.212 314.681,145.829C311.138,144.105 307.306,143.243 303.188,143.243C298.398,143.243 294.208,144.943 290.616,148.343C287.024,151.744 285.228,156.174 285.228,161.633C285.228,167.189 287.072,171.666 290.76,175.067C294.447,178.467 298.829,180.167 303.906,180.167C308.408,180.167 312.574,178.922 316.406,176.432C317.651,175.665 318.8,175.282 319.854,175.282C321.674,175.282 323.158,176.001 324.308,177.437L326.75,180.455C327.421,181.125 327.756,182.083 327.756,183.328C327.756,185.339 327.085,186.872 325.744,187.926C319.327,193.002 311.76,195.54 303.044,195.54C292.316,195.54 283.72,192.451 277.254,186.273C270.789,180.095 267.556,171.882 267.556,161.633C267.556,152.055 270.717,144.009 277.039,137.496C283.361,130.983 291.358,127.726 301.032,127.726C309.27,127.726 316.358,129.354 322.296,132.611C324.02,133.569 324.882,135.149 324.882,137.352C324.882,138.214 324.691,138.981 324.308,139.651L322.153,143.387C320.907,145.398 319.279,146.404 317.268,146.404ZM528.037,190.081L528.037,98.704C528.037,97.267 528.564,96.022 529.618,94.969C530.671,93.915 531.917,93.388 533.353,93.388L539.244,93.388C540.681,93.388 541.926,93.915 542.979,94.969C544.033,96.022 544.56,97.267 544.56,98.704L544.56,190.081C544.56,191.517 544.033,192.763 542.979,193.816C541.926,194.87 540.681,195.397 539.244,195.397L533.353,195.397C531.917,195.397 530.671,194.87 529.618,193.816C528.564,192.763 528.037,191.517 528.037,190.081ZM574.444,194.822C568.41,194.822 563.525,193.05 559.789,189.506C556.054,185.962 554.186,181.125 554.186,174.995C554.186,168.194 556.389,162.998 560.795,159.406C565.201,155.814 570.852,154.019 577.749,154.019C583.687,154.019 588.572,155.407 592.403,158.185L592.403,156.174C592.403,151.193 591.493,147.505 589.673,145.111C587.854,142.716 584.741,141.519 580.335,141.519C576.408,141.519 572.72,142.094 569.272,143.243C568.41,143.53 567.548,143.674 566.686,143.674C564.387,143.674 562.759,142.668 561.801,140.657L560.939,138.933C560.556,137.975 560.364,137.209 560.364,136.634C560.364,134.623 561.37,133.09 563.381,132.036C569.607,129.163 575.833,127.726 582.059,127.726C591.254,127.726 597.863,129.977 601.886,134.479C605.909,138.981 607.92,145.685 607.92,154.593L607.92,188.644C607.92,190.081 607.393,191.326 606.34,192.379C605.286,193.433 604.041,193.96 602.604,193.96L598.869,193.96C597.432,193.96 596.187,193.433 595.133,192.379C594.079,191.326 593.553,190.081 593.553,188.644L593.553,186.489C589.626,192.044 583.256,194.822 574.444,194.822ZM400.167,93.388L406.058,93.388C407.495,93.388 408.74,93.915 409.794,94.969C410.847,96.022 411.374,97.267 411.374,98.704L411.374,188.644C411.374,190.081 410.847,191.326 409.794,192.379C408.74,193.433 407.495,193.96 406.058,193.96L400.167,193.96C398.731,193.96 397.486,193.433 396.432,192.379C395.378,191.326 394.852,190.081 394.852,188.644L394.852,98.704C394.852,97.267 395.378,96.022 396.432,94.969C397.486,93.915 398.731,93.388 400.167,93.388ZM434.649,190.512L414.822,164.363C413.864,163.118 413.385,161.729 413.385,160.197C413.385,158.664 413.864,157.275 414.822,156.03L432.207,132.755C434.027,130.456 436.325,129.307 439.103,129.307L445.137,129.307C446.574,129.307 447.748,129.809 448.657,130.815C449.567,131.821 450.022,132.994 450.022,134.335C450.022,135.58 449.639,136.634 448.873,137.496L431.345,158.903L452.034,185.627C452.8,186.68 453.183,187.734 453.183,188.788C453.183,190.224 452.68,191.446 451.675,192.451C450.669,193.457 449.448,193.96 448.011,193.96L441.546,193.96C438.672,193.96 436.373,192.811 434.649,190.512ZM592.403,174.995L592.403,168.386C589.626,166.279 585.842,165.225 581.053,165.225C578.084,165.225 575.617,165.92 573.654,167.308C571.69,168.697 570.709,170.685 570.709,173.271C570.709,175.665 571.571,177.533 573.295,178.874C575.019,180.215 577.222,180.886 579.904,180.886C585.459,180.886 589.626,178.922 592.403,174.995ZM636.368,149.421L636.368,176.863C639.816,179.066 643.743,180.167 648.149,180.167C653.513,180.167 657.919,178.515 661.367,175.21C664.815,171.906 666.539,167.428 666.539,161.777C666.539,155.838 664.935,151.265 661.726,148.056C658.517,144.847 654.47,143.243 649.586,143.243C644.318,143.243 639.912,145.302 636.368,149.421Z" style="fill:rgb(67,82,184);"/>
        </g>
        <g transform="matrix(0.613548,0,-4.05462e-17,0.613548,-520.055,-119.463)">
            <g transform="matrix(2.05098,0,0,2.05098,704.116,26.6205)">
                <path d="M300.866,432.747C299.495,432.681 298.136,432.293 296.908,431.585L262.269,411.586C259.562,410.023 257.888,407.125 257.889,403.998L257.889,364.001C257.889,360.875 259.562,357.977 262.269,356.414L296.908,336.415C299.616,334.852 302.962,334.852 305.67,336.415L340.308,356.414C343.015,357.977 344.689,360.875 344.689,364.001L344.689,403.998C344.689,407.125 343.016,410.023 340.308,411.586L340.309,411.586L305.669,431.585C304.317,432.365 302.806,432.756 301.295,432.757C302.051,431.446 302.47,429.94 302.47,428.377L302.47,428.378L302.469,388.38C302.469,385.254 300.796,382.356 298.089,380.793L263.45,360.794C262.096,360.012 260.583,359.621 259.069,359.622C258.313,360.932 257.894,362.438 257.894,364.002L257.895,403.999C257.894,407.125 259.568,410.024 262.275,411.587L296.914,431.585C298.139,432.293 299.496,432.68 300.866,432.747Z" style="fill:rgb(50,108,229);"/>
            </g>
            <g transform="matrix(0.595239,0,3.93362e-17,0.595239,1169.67,661.814)">
                <path d="M405.541,312.268L405.541,324.906C405.542,335.679 399.776,345.666 390.446,351.052C390.446,351.052 390.449,351.052 390.449,351.052L329.139,386.448L329.139,386.449L314.696,394.788L314.695,394.787L271.093,419.96C266.435,422.649 261.229,423.995 256.021,423.999C258.628,419.483 260.069,414.294 260.069,408.908L260.07,408.91L260.07,329.645L318.978,329.645C350.253,329.645 375.644,304.254 375.644,272.978C375.644,267.064 374.736,261.36 373.053,256.001L373.054,256L405.541,312.268Z" style="fill-opacity:0.07;"/>
            </g>
            <g transform="matrix(0.793652,0,5.24483e-17,0.793652,1048.49,248.523)">
                <path d="M299.305,683.04C306.089,664.549 323.858,651.341 344.689,651.341C365.519,651.341 383.289,664.549 390.073,683.04C390.686,683.013 391.305,683 391.926,683C415.383,683 434.426,702.044 434.426,725.5C434.426,748.956 415.383,768 391.926,768L297.451,768C273.995,768 254.951,748.956 254.951,725.5C254.951,702.044 273.995,683 297.451,683C298.073,683 298.691,683.013 299.305,683.04Z" style="fill:white;"/>
            </g>
            <g id="_-Curve-" serif:id="(Curve)" transform="matrix(0.515492,-0.297619,0.297619,0.515492,1113.9,758.42)">
                <path d="M256.016,405.54L187.09,405.539C181.712,405.539 176.53,404.102 172.019,401.501C176.534,398.894 180.377,395.121 183.069,390.456L183.069,390.459L251.977,271.103C254.67,266.439 256.016,261.224 256.016,256.011L256.016,256.011L256.016,405.54Z" style="fill-opacity:0.07;"/>
            </g>
            <g transform="matrix(-1,0,0,1,2395.5,-284.778)">
                <path d="M1160.04,1048.97C1161.59,1051.66 1162.44,1054.75 1162.44,1057.96L1162.44,1139.99C1162.44,1146.4 1159.01,1152.35 1153.46,1155.55L1082.42,1196.57C1079.64,1198.17 1076.54,1198.97 1073.43,1198.97C1071.88,1196.29 1071.02,1193.2 1071.02,1189.99L1071.02,1189.99L1071.02,1107.96C1071.02,1101.54 1074.45,1095.6 1080.01,1092.39L1151.05,1051.38C1153.83,1049.78 1156.93,1048.97 1160.04,1048.97Z" style="fill:rgb(102,157,246);"/>
            </g>
        </g>
    </g>
</svg>
